if (_typeface_js && _typeface_js.loadFace) _typeface_js.loadFace({"glyphs":{"S":{"x_min":55.5625,"x_max":684.78125,"ha":735,"o":"m 125 198 q 238 115 173 147 q 376 84 304 84 q 516 125 466 84 q 566 233 566 166 q 554 292 566 268 q 522 334 543 316 q 473 365 501 351 q 413 394 445 379 l 283 451 q 218 484 251 465 q 159 531 186 504 q 115 597 131 559 q 98 686 98 636 q 120 782 98 737 q 180 859 141 826 q 271 909 219 891 q 386 927 323 927 q 536 896 468 927 q 654 815 605 865 l 593 740 q 500 803 551 780 q 386 826 448 826 q 261 791 308 826 q 215 693 215 755 q 229 636 215 659 q 264 596 243 613 q 313 566 286 579 q 366 541 340 552 l 497 486 q 570 447 536 469 q 630 397 605 426 q 670 331 655 369 q 684 243 684 293 q 663 141 684 188 q 601 59 641 94 q 503 3 561 23 q 373 -16 445 -16 q 196 19 277 -16 q 55 118 115 55 l 125 198 "},"\u0000":{"x_min":0,"x_max":0,"ha":0},"/":{"x_min":13.890625,"x_max":468.09375,"ha":486,"o":"m 384 986 l 468 986 l 98 -222 l 13 -222 l 384 986 "},"K":{"x_min":120.84375,"x_max":794.515625,"ha":797,"o":"m 120 911 l 237 911 l 237 454 l 240 454 l 619 911 l 751 911 l 465 563 l 794 0 l 665 0 l 393 473 l 237 288 l 237 0 l 120 0 l 120 911 "},"7":{"x_min":61.109375,"x_max":632,"ha":690,"o":"m 245 0 q 268 229 251 125 q 314 427 284 333 q 391 608 344 520 q 502 787 437 695 l 61 787 l 61 886 l 632 886 l 632 815 q 503 623 552 715 q 425 436 454 531 q 382 235 395 341 q 363 0 369 129 l 245 0 l 245 0 "},"d":{"x_min":65.28125,"x_max":657,"ha":771,"o":"m 65 336 q 89 484 65 418 q 154 595 113 550 q 247 666 194 641 q 358 691 300 691 q 459 670 416 691 q 547 613 502 650 l 541 729 l 541 988 l 657 988 l 657 0 l 562 0 l 552 79 l 548 79 q 456 11 508 40 q 344 -16 404 -16 q 140 75 216 -16 q 65 336 65 166 m 183 337 q 231 147 183 215 q 369 79 280 79 q 458 102 416 79 q 541 172 500 125 l 541 525 q 459 579 498 563 q 377 595 419 595 q 302 577 337 595 q 240 524 266 558 q 198 443 213 490 q 183 337 183 395 "},",":{"x_min":65.28125,"x_max":275.015625,"ha":346,"o":"m 65 -169 q 156 -100 123 -143 q 190 0 190 -56 q 176 -1 186 -1 q 118 18 143 -1 q 94 77 94 38 q 119 136 94 115 q 179 158 144 158 q 249 122 223 158 q 275 23 275 86 q 226 -133 275 -66 q 93 -236 177 -200 l 65 -169 "},"Y":{"x_min":-5.5625,"x_max":658.390625,"ha":654,"o":"m 269 352 l -5 911 l 119 911 l 236 654 q 279 555 258 604 q 325 455 301 506 l 330 455 q 377 555 354 506 q 420 654 400 604 l 538 911 l 658 911 l 384 352 l 384 0 l 269 0 l 269 352 "},"E":{"x_min":120.84375,"x_max":659.78125,"ha":725,"o":"m 120 911 l 645 911 l 645 813 l 237 813 l 237 527 l 581 527 l 581 429 l 237 429 l 237 98 l 659 98 l 659 0 l 120 0 l 120 911 "},"y":{"x_min":16.671875,"x_max":632,"ha":649,"o":"m 68 -186 q 93 -192 79 -188 q 119 -195 106 -195 q 214 -154 177 -195 q 272 -51 251 -113 l 287 -1 l 16 675 l 134 675 l 272 301 q 304 207 287 256 q 337 111 322 158 l 343 111 q 372 206 358 156 q 400 301 386 256 l 520 675 l 632 675 l 377 -55 q 337 -148 359 -105 q 284 -222 315 -191 q 215 -272 254 -254 q 125 -290 176 -290 q 81 -286 101 -290 q 45 -276 62 -283 l 68 -186 l 68 -186 "},"\"":{"x_min":111.125,"x_max":477.359375,"ha":590,"o":"m 115 830 l 111 958 l 233 958 l 229 830 l 206 598 l 137 598 l 115 830 m 359 830 l 355 958 l 477 958 l 473 830 l 450 598 l 381 598 l 359 830 "},"g":{"x_min":62.5,"x_max":683.390625,"ha":700,"o":"m 162 -113 q 214 -200 162 -168 q 358 -231 266 -231 q 446 -220 406 -231 q 513 -189 486 -208 q 556 -145 541 -170 q 572 -94 572 -120 q 537 -29 572 -47 q 436 -11 502 -11 l 319 -11 q 277 -9 300 -11 q 231 0 254 -6 q 179 -55 195 -26 q 162 -113 162 -84 m 62 -129 q 88 -47 62 -86 q 161 23 115 -8 l 161 29 q 118 71 136 44 q 101 138 101 98 q 125 213 101 181 q 175 263 148 245 l 175 269 q 114 343 141 297 q 87 451 87 390 q 107 551 87 506 q 162 627 127 595 q 243 675 197 658 q 341 691 290 691 q 393 686 369 691 q 437 675 418 682 l 672 675 l 672 587 l 533 587 q 572 527 556 563 q 588 448 588 491 q 569 350 588 394 q 516 277 550 306 q 438 230 483 247 q 341 213 393 213 q 290 220 316 213 q 240 237 263 226 q 209 203 222 222 q 197 156 197 184 q 222 104 197 125 q 316 83 247 83 l 447 83 q 624 45 565 83 q 683 -77 683 6 q 659 -167 683 -125 q 591 -241 636 -209 q 484 -292 547 -273 q 341 -311 420 -311 q 227 -299 279 -311 q 139 -263 176 -287 q 82 -206 102 -240 q 62 -129 62 -173 m 341 290 q 396 301 370 290 q 442 333 422 312 q 473 384 462 354 q 484 451 484 413 q 443 567 484 526 q 341 608 401 608 q 240 567 281 608 q 198 451 198 526 q 209 384 198 413 q 240 333 220 354 q 286 301 261 312 q 341 290 312 290 "},"e":{"x_min":63.890625,"x_max":636.15625,"ha":689,"o":"m 63 336 q 89 485 63 419 q 157 597 115 551 q 254 667 200 643 q 366 691 308 691 q 481 669 430 691 q 566 605 531 647 q 618 505 600 563 q 636 375 636 447 q 632 312 636 337 l 176 312 q 243 138 183 202 q 401 75 304 75 q 491 89 450 75 q 569 127 531 104 l 609 52 q 511 4 565 25 q 387 -16 456 -16 q 260 7 319 -16 q 157 77 201 31 q 88 187 113 122 q 63 336 63 252 m 536 387 q 492 546 536 491 q 369 601 448 601 q 300 586 333 601 q 241 545 268 572 q 197 478 215 518 q 175 387 180 438 l 536 387 "},"J":{"x_min":40.28125,"x_max":541.703125,"ha":658,"o":"m 122 187 q 193 109 154 133 q 280 84 231 84 q 390 129 354 84 q 426 279 426 175 l 426 911 l 541 911 l 541 268 q 527 157 541 209 q 483 66 513 105 q 404 5 452 27 q 290 -16 356 -16 q 40 129 120 -16 l 122 187 "},"|":{"x_min":127.78125,"x_max":208.34375,"ha":335,"o":"m 127 1041 l 208 1041 l 208 -347 l 127 -347 l 127 1041 "},"^":{"x_min":83.34375,"x_max":607,"ha":690,"o":"m 294 930 l 395 930 l 607 394 l 506 394 l 416 638 l 348 823 l 343 823 l 273 638 l 183 394 l 83 394 l 294 930 "},"q":{"x_min":65.28125,"x_max":657,"ha":764,"o":"m 65 336 q 89 484 65 418 q 154 595 113 550 q 247 666 194 641 q 358 691 300 691 q 461 671 416 691 q 551 611 505 651 l 554 611 l 565 675 l 657 675 l 657 -284 l 541 -284 l 541 -44 l 547 75 q 454 10 506 37 q 344 -16 402 -16 q 140 75 216 -16 q 65 336 65 166 m 183 337 q 231 147 183 215 q 369 79 280 79 q 458 102 416 79 q 541 172 500 125 l 541 525 q 459 579 498 563 q 377 595 419 595 q 302 577 337 595 q 240 524 266 558 q 198 443 213 490 q 183 337 183 395 "},"b":{"x_min":113.890625,"x_max":704.21875,"ha":771,"o":"m 113 988 l 227 988 l 227 719 l 225 597 q 325 664 270 637 q 436 691 379 691 q 551 667 501 691 q 635 597 601 643 q 686 489 669 552 q 704 348 704 426 q 680 194 704 262 q 616 79 657 126 q 523 7 576 31 q 412 -16 470 -16 q 314 4 365 -16 q 219 66 263 26 l 215 66 l 205 0 l 113 0 l 113 988 m 227 150 q 316 95 272 111 q 393 79 359 79 q 470 97 434 79 q 531 150 505 116 q 571 234 556 184 q 586 347 586 284 q 576 448 586 402 q 545 527 566 494 q 489 577 523 559 q 408 595 455 595 q 227 504 326 595 l 227 150 "},"D":{"x_min":120.84375,"x_max":779.234375,"ha":850,"o":"m 120 911 l 348 911 q 669 794 559 911 q 779 459 779 677 q 751 265 779 351 q 669 121 723 180 q 536 31 615 62 q 354 0 456 0 l 120 0 l 120 911 m 340 94 q 580 190 501 94 q 659 459 659 286 q 580 725 659 633 q 340 816 501 816 l 237 816 l 237 94 l 340 94 "},"z":{"x_min":43.0625,"x_max":554.21875,"ha":590,"o":"m 43 61 l 398 581 l 81 581 l 81 675 l 543 675 l 543 613 l 187 93 l 554 93 l 554 0 l 43 0 l 43 61 "},"w":{"x_min":33.34375,"x_max":963.96875,"ha":997,"o":"m 33 675 l 150 675 l 250 284 q 270 190 261 236 q 290 97 280 144 l 295 97 q 318 190 306 144 q 341 284 329 237 l 445 675 l 556 675 l 662 284 q 686 190 675 236 q 709 97 698 144 l 715 97 q 736 190 726 144 q 757 284 745 236 l 855 675 l 963 675 l 783 0 l 644 0 l 547 362 q 524 458 534 411 q 501 556 513 505 l 495 556 q 473 457 484 505 q 448 361 462 409 l 354 0 l 220 0 l 33 675 "},"$":{"x_min":72.234375,"x_max":607,"ha":690,"o":"m 527 727 q 452 786 488 765 q 358 807 415 807 q 256 770 294 807 q 219 673 219 734 q 247 591 219 623 q 319 535 276 559 q 413 488 362 511 q 506 432 463 465 q 578 352 550 400 q 607 229 607 304 q 549 65 607 129 q 391 -12 491 1 l 391 -152 l 308 -152 l 308 -15 q 179 21 241 -8 q 72 91 116 51 l 125 170 q 222 104 169 131 q 340 77 276 77 q 456 116 418 77 q 494 220 494 155 q 466 313 494 276 q 394 377 437 350 q 300 427 351 404 q 206 481 250 451 q 135 556 163 512 q 106 668 106 600 q 161 822 106 761 q 308 900 216 884 l 308 1038 l 391 1038 l 391 901 q 504 865 458 894 q 588 795 551 836 l 527 727 "},"\\":{"x_min":19.453125,"x_max":472.265625,"ha":486,"o":"m 19 986 l 101 986 l 472 -222 l 388 -222 l 19 986 "},"~":{"x_min":50,"x_max":640.328125,"ha":690,"o":"m 50 434 q 133 530 87 501 q 223 559 179 559 q 297 541 265 559 q 359 501 330 523 q 413 461 387 479 q 469 443 440 443 q 526 463 500 443 q 576 527 552 483 l 640 480 q 556 385 602 413 q 466 356 511 356 q 392 375 425 356 q 331 415 359 393 q 276 455 302 437 q 220 473 250 473 q 163 453 190 473 q 113 388 137 433 l 50 434 "},"-":{"x_min":56.953125,"x_max":376.421875,"ha":432,"o":"m 56 391 l 376 391 l 376 304 l 56 304 l 56 391 "},"Q":{"x_min":66.671875,"x_max":865.34375,"ha":915,"o":"m 186 459 q 205 304 186 373 q 260 186 225 236 q 345 111 295 137 q 455 84 394 84 q 566 111 516 84 q 650 186 615 137 q 705 304 686 236 q 725 459 725 373 q 705 612 725 544 q 650 727 686 680 q 566 800 615 775 q 455 826 516 826 q 345 800 394 826 q 260 727 295 775 q 205 612 225 680 q 186 459 186 544 m 865 -206 q 809 -220 844 -213 q 734 -227 775 -227 q 523 -167 608 -227 q 398 -12 438 -106 q 262 34 323 -2 q 157 133 201 72 q 90 277 113 194 q 66 459 66 359 q 95 656 66 569 q 175 803 123 743 q 297 895 226 863 q 455 927 369 927 q 613 895 541 927 q 736 802 684 862 q 817 654 788 741 q 845 459 845 568 q 822 279 845 361 q 757 138 800 198 q 655 39 715 77 q 523 -11 595 1 q 613 -101 555 -72 q 747 -130 672 -130 q 800 -126 777 -130 q 843 -116 823 -122 l 865 -206 "},"M":{"x_min":120.84375,"x_max":880.625,"ha":1003,"o":"m 120 911 l 258 911 l 434 422 l 500 236 l 505 236 l 569 422 l 744 911 l 880 911 l 880 0 l 770 0 l 770 501 q 776 636 770 562 q 786 770 782 709 l 780 770 l 708 568 l 533 91 l 466 91 l 291 568 l 219 770 l 213 770 q 222 636 218 709 q 227 501 227 562 l 227 0 l 120 0 l 120 911 "},"C":{"x_min":68.0625,"x_max":744.5,"ha":786,"o":"m 68 455 q 98 652 68 565 q 184 801 129 740 q 313 895 238 862 q 475 927 387 927 q 620 893 556 927 q 723 815 683 859 l 658 741 q 577 803 622 780 q 476 826 533 826 q 357 800 411 826 q 266 727 304 775 q 208 611 229 679 q 187 458 187 543 q 207 303 187 372 q 264 186 227 234 q 353 111 301 137 q 470 84 405 84 q 585 111 536 84 q 679 186 634 137 l 744 115 q 623 18 691 52 q 468 -16 555 -16 q 309 15 381 -16 q 182 107 236 47 q 98 256 129 168 q 68 455 68 344 "},"[":{"x_min":130.5625,"x_max":379.203125,"ha":421,"o":"m 130 983 l 379 983 l 379 916 l 216 916 l 216 -145 l 379 -145 l 379 -211 l 130 -211 l 130 983 "},"L":{"x_min":120.84375,"x_max":634.765625,"ha":668,"o":"m 120 911 l 237 911 l 237 98 l 634 98 l 634 0 l 120 0 l 120 911 "},"!":{"x_min":118.0625,"x_max":283.359375,"ha":401,"o":"m 145 800 l 143 930 l 258 930 l 255 800 l 240 275 l 161 275 l 145 800 m 118 69 q 142 134 118 109 q 201 158 166 158 q 259 134 234 158 q 283 69 283 109 q 259 7 283 31 q 201 -16 234 -16 q 142 7 166 -16 q 118 69 118 31 "}," ":{"x_min":0,"x_max":0,"ha":281},"{":{"x_min":47.21875,"x_max":379.203125,"ha":421,"o":"m 154 -26 q 156 45 154 11 q 160 111 158 79 q 164 175 162 143 q 166 241 166 206 q 161 281 166 262 q 142 315 155 300 q 105 340 129 330 q 47 350 81 350 l 47 422 q 105 431 81 422 q 142 456 129 441 q 161 490 155 470 q 166 529 166 509 q 160 661 166 595 q 154 798 154 726 q 163 886 154 851 q 193 943 173 922 q 244 974 213 965 q 315 983 275 983 l 379 983 l 379 916 l 340 916 q 265 888 284 916 q 247 791 247 859 q 251 667 247 730 q 255 540 255 604 q 236 436 255 472 q 172 388 216 401 l 172 383 q 236 334 216 370 q 255 231 255 298 q 251 102 255 161 q 247 -19 247 44 q 265 -116 247 -87 q 340 -145 284 -145 l 379 -145 l 379 -211 l 315 -211 q 244 -202 275 -211 q 193 -172 213 -193 q 163 -115 173 -151 q 154 -26 154 -80 "},"X":{"x_min":18.0625,"x_max":688.9375,"ha":706,"o":"m 283 470 l 34 911 l 162 911 l 287 677 q 320 616 304 645 q 358 545 336 586 l 363 545 q 397 616 383 586 q 427 677 411 645 l 548 911 l 670 911 l 423 465 l 688 0 l 561 0 l 426 245 q 389 314 408 279 q 348 391 370 350 l 343 391 q 306 314 323 350 q 270 245 288 279 l 138 0 l 18 0 l 283 470 "},"P":{"x_min":120.84375,"x_max":737.5625,"ha":793,"o":"m 120 911 l 401 911 q 538 897 476 911 q 645 852 601 883 q 713 769 688 820 q 737 643 737 718 q 713 518 737 570 q 644 430 688 465 q 538 378 600 395 q 401 361 476 361 l 237 361 l 237 0 l 120 0 l 120 911 m 386 455 q 564 500 506 455 q 622 643 622 545 q 563 779 622 741 q 386 818 504 818 l 237 818 l 237 455 l 386 455 "},"%":{"x_min":48.609375,"x_max":1097.53125,"ha":1145,"o":"m 255 352 q 104 427 161 352 q 48 641 48 502 q 104 853 48 778 q 255 927 161 927 q 405 853 348 927 q 462 641 462 778 q 405 427 462 502 q 255 352 348 352 m 255 423 q 341 478 308 423 q 375 641 375 532 q 341 803 375 749 q 255 856 308 856 q 168 803 201 856 q 134 641 134 749 q 168 478 134 532 q 255 423 201 423 m 281 -16 l 783 927 l 861 927 l 358 -16 l 281 -16 m 890 -16 q 739 58 796 -16 q 683 272 683 133 q 739 484 683 409 q 890 558 796 558 q 1040 484 983 558 q 1097 272 1097 409 q 1040 58 1097 133 q 890 -16 983 -16 m 890 54 q 976 109 943 54 q 1010 272 1010 163 q 976 434 1010 380 q 890 487 943 487 q 803 434 836 487 q 769 272 769 380 q 803 109 769 163 q 890 54 836 54 "},"#":{"x_min":48.609375,"x_max":648.65625,"ha":690,"o":"m 159 283 l 48 283 l 48 362 l 169 362 l 194 568 l 76 568 l 76 648 l 204 648 l 236 902 l 309 902 l 277 648 l 462 648 l 495 902 l 569 902 l 536 648 l 648 648 l 648 568 l 527 568 l 502 362 l 620 362 l 620 283 l 493 283 l 458 0 l 384 0 l 418 283 l 234 283 l 200 0 l 125 0 l 159 283 m 427 362 l 452 568 l 269 568 l 244 362 l 427 362 "},"_":{"x_min":16.671875,"x_max":677.828125,"ha":695,"o":"m 677 -98 l 677 -175 l 16 -175 l 16 -98 l 677 -98 "},"+":{"x_min":47.21875,"x_max":643.109375,"ha":690,"o":"m 300 415 l 47 415 l 47 501 l 300 501 l 300 772 l 390 772 l 390 501 l 643 501 l 643 415 l 390 415 l 390 144 l 300 144 l 300 415 "},")":{"x_min":52.78125,"x_max":306.96875,"ha":421,"o":"m 52 -211 q 172 74 133 -77 q 212 386 212 226 q 172 697 212 545 q 52 983 133 850 l 123 1016 q 258 722 209 876 q 306 386 306 569 q 258 48 306 202 q 123 -244 209 -105 l 52 -211 l 52 -211 "},"'":{"x_min":111.125,"x_max":233.359375,"ha":346,"o":"m 115 830 l 111 958 l 233 958 l 229 830 l 206 598 l 137 598 l 115 830 "},"}":{"x_min":43.0625,"x_max":373.640625,"ha":421,"o":"m 79 -145 q 154 -116 136 -145 q 173 -19 173 -87 q 170 102 173 44 q 166 231 166 161 q 185 334 166 298 q 248 383 204 370 l 248 388 q 185 436 204 401 q 166 540 166 472 q 170 667 166 604 q 173 791 173 730 q 154 888 173 859 q 79 916 136 916 l 43 916 l 43 983 l 104 983 q 227 943 187 983 q 266 798 266 904 q 260 661 266 726 q 254 529 254 595 q 279 456 254 488 q 373 422 304 423 l 373 350 q 316 340 338 350 q 279 315 293 330 q 259 281 265 300 q 254 241 254 262 q 256 175 254 206 q 260 111 258 143 q 264 45 262 79 q 266 -26 266 11 q 256 -115 266 -80 q 227 -172 247 -151 q 176 -202 206 -193 q 104 -211 145 -211 l 43 -211 l 43 -145 l 79 -145 "},"a":{"x_min":80.5625,"x_max":609.765625,"ha":711,"o":"m 80 175 q 179 345 80 286 q 495 427 279 404 q 489 490 495 459 q 467 544 483 520 q 425 582 451 568 q 356 597 398 597 q 246 575 297 597 q 155 525 195 552 l 109 604 q 225 663 156 634 q 375 691 293 691 q 554 616 498 691 q 609 413 609 540 l 609 0 l 515 0 l 505 80 l 502 80 q 397 11 454 40 q 279 -16 341 -16 q 136 33 193 -16 q 80 175 80 83 m 193 183 q 227 100 193 125 q 311 75 261 75 q 403 97 359 75 q 495 165 447 120 l 495 352 q 352 326 411 341 q 259 290 294 311 q 208 242 223 269 q 193 183 193 215 "},"T":{"x_min":34.71875,"x_max":702.828125,"ha":738,"o":"m 311 813 l 34 813 l 34 911 l 702 911 l 702 813 l 426 813 l 426 0 l 311 0 l 311 813 "},"=":{"x_min":47.21875,"x_max":643.109375,"ha":690,"o":"m 47 650 l 643 650 l 643 564 l 47 564 l 47 650 m 47 354 l 643 354 l 643 268 l 47 268 l 47 354 "},"N":{"x_min":120.84375,"x_max":769.5,"ha":892,"o":"m 120 911 l 240 911 l 570 338 l 669 150 l 675 150 q 665 293 670 219 q 659 440 659 368 l 659 911 l 769 911 l 769 0 l 650 0 l 320 573 l 222 761 l 216 761 q 225 620 220 691 q 230 476 230 548 l 230 0 l 120 0 l 120 911 "},"2":{"x_min":50,"x_max":627.828125,"ha":690,"o":"m 55 68 q 233 248 155 168 q 363 397 311 329 q 444 524 416 466 q 472 636 472 581 q 430 761 472 712 q 304 809 388 809 q 201 778 248 809 q 115 702 154 747 l 50 768 q 168 866 105 829 q 318 902 230 902 q 512 831 441 902 q 583 641 583 759 q 556 516 583 579 q 481 385 529 452 q 367 245 433 318 q 222 90 301 172 q 297 95 258 93 q 370 98 336 98 l 627 98 l 627 0 l 55 0 l 55 68 "},"j":{"x_min":-55.5625,"x_max":251.40625,"ha":343,"o":"m 115 675 l 229 675 l 229 -76 q 187 -240 229 -179 q 44 -301 145 -301 q -12 -295 12 -301 q -55 -283 -37 -290 l -31 -197 q -2 -204 -19 -201 q 31 -208 13 -208 q 98 -173 81 -208 q 115 -76 115 -138 l 115 675 m 173 813 q 117 834 140 813 q 94 887 94 855 q 117 941 94 920 q 173 961 140 961 q 228 941 205 961 q 251 887 251 920 q 228 834 251 855 q 173 813 205 813 "},"Z":{"x_min":58.34375,"x_max":686.171875,"ha":742,"o":"m 58 69 l 538 813 l 101 813 l 101 911 l 682 911 l 682 843 l 201 98 l 686 98 l 686 0 l 58 0 l 58 69 "},"u":{"x_min":104.171875,"x_max":641.71875,"ha":756,"o":"m 104 675 l 219 675 l 219 262 q 249 124 219 166 q 345 81 279 81 q 438 109 398 81 q 527 195 479 136 l 527 675 l 641 675 l 641 0 l 547 0 l 537 105 l 533 105 q 434 16 486 50 q 311 -16 381 -16 q 153 50 202 -16 q 104 247 104 116 l 104 675 "},"1":{"x_min":109.734375,"x_max":609.765625,"ha":690,"o":"m 109 94 l 312 94 l 312 747 l 151 747 l 151 820 q 257 847 212 832 q 338 886 302 863 l 426 886 l 426 94 l 609 94 l 609 0 l 109 0 l 109 94 "},"k":{"x_min":113.890625,"x_max":675.046875,"ha":688,"o":"m 113 988 l 226 988 l 226 319 l 230 319 l 518 675 l 644 675 l 418 404 l 675 0 l 550 0 l 352 325 l 226 177 l 226 0 l 113 0 l 113 988 "},"<":{"x_min":47.21875,"x_max":643.109375,"ha":690,"o":"m 47 506 l 643 740 l 643 641 l 350 533 l 163 463 l 163 458 l 350 388 l 643 280 l 643 181 l 47 415 l 47 506 "},"t":{"x_min":33.34375,"x_max":451.421875,"ha":469,"o":"m 133 581 l 33 581 l 33 668 l 138 675 l 152 863 l 248 863 l 248 675 l 430 675 l 430 581 l 248 581 l 248 206 q 271 110 248 144 q 352 76 294 76 q 391 81 370 76 q 429 94 412 87 l 451 8 q 391 -9 423 -1 q 326 -16 358 -16 q 235 0 272 -16 q 175 45 198 16 q 143 116 152 75 q 133 208 133 158 l 133 581 "},"W":{"x_min":27.78125,"x_max":1055.640625,"ha":1085,"o":"m 27 911 l 147 911 l 243 415 q 270 268 256 340 q 297 120 283 195 l 302 120 q 334 268 318 195 q 366 415 350 341 l 493 911 l 598 911 l 725 415 q 757 269 740 343 q 790 120 773 195 l 795 120 q 822 268 809 195 q 847 415 834 341 l 943 911 l 1055 911 l 866 0 l 726 0 l 588 548 q 566 652 577 601 q 545 755 555 702 l 540 755 q 517 652 529 702 q 494 548 505 601 l 358 0 l 220 0 l 27 911 "},"v":{"x_min":16.671875,"x_max":632,"ha":649,"o":"m 16 675 l 134 675 l 262 291 q 293 191 277 241 q 325 93 309 141 l 330 93 q 361 191 345 141 q 391 291 376 241 l 519 675 l 632 675 l 393 0 l 259 0 l 16 675 "},">":{"x_min":47.21875,"x_max":643.109375,"ha":690,"o":"m 643 415 l 47 181 l 47 280 l 340 388 l 526 458 l 526 463 l 340 533 l 47 641 l 47 740 l 643 506 l 643 415 "},"s":{"x_min":38.890625,"x_max":537.546875,"ha":582,"o":"m 95 152 q 186 94 140 116 q 294 72 233 72 q 394 102 361 72 q 427 177 427 133 q 413 223 427 204 q 378 257 400 243 q 329 283 356 272 q 273 305 301 294 q 201 334 237 318 q 136 372 165 350 q 90 426 108 395 q 72 500 72 456 q 88 575 72 540 q 134 636 104 611 q 206 677 163 662 q 304 691 250 691 q 421 669 368 691 q 513 615 475 647 l 459 543 q 387 586 425 569 q 305 602 350 602 q 211 573 241 602 q 181 505 181 544 q 194 465 181 481 q 227 434 206 448 q 275 410 248 420 q 331 388 302 400 q 404 359 368 375 q 470 321 441 344 q 518 265 500 298 q 537 184 537 231 q 521 106 537 143 q 474 43 505 70 q 396 0 443 15 q 290 -16 350 -16 q 152 9 218 -16 q 38 76 87 36 l 95 152 "},"B":{"x_min":120.84375,"x_max":757,"ha":810,"o":"m 120 911 l 391 911 q 518 898 461 911 q 618 859 576 886 q 682 791 659 833 q 705 688 705 748 q 666 566 705 620 q 545 490 627 511 l 545 484 q 701 415 645 469 q 757 266 757 361 q 732 150 757 200 q 661 66 707 100 q 552 16 615 33 q 412 0 488 0 l 120 0 l 120 911 m 372 522 q 540 562 488 522 q 591 679 591 602 q 537 786 591 754 q 377 819 483 819 l 237 819 l 237 522 l 372 522 m 395 91 q 578 135 513 91 q 643 272 643 179 q 579 396 643 356 q 395 436 516 436 l 237 436 l 237 91 l 395 91 "},"?":{"x_min":52.78125,"x_max":523.65625,"ha":590,"o":"m 222 275 q 225 372 213 329 q 258 453 237 416 q 306 522 279 490 q 356 585 333 554 q 396 648 380 616 q 412 718 412 680 q 378 813 412 773 q 277 852 344 852 q 190 831 231 852 q 118 772 150 809 l 52 832 q 154 914 97 882 q 286 947 211 947 q 459 888 394 947 q 523 725 523 829 q 506 641 523 679 q 466 570 490 604 q 414 504 441 537 q 364 437 387 472 q 329 363 341 402 q 322 275 316 323 l 222 275 m 193 69 q 216 134 193 109 q 275 158 240 158 q 334 134 309 158 q 358 69 358 109 q 334 7 358 31 q 275 -16 309 -16 q 216 7 240 -16 q 193 69 193 31 "},"H":{"x_min":120.84375,"x_max":776.453125,"ha":899,"o":"m 120 911 l 237 911 l 237 529 l 661 529 l 661 911 l 776 911 l 776 0 l 661 0 l 661 429 l 237 429 l 237 0 l 120 0 l 120 911 "},"c":{"x_min":63.890625,"x_max":600.046875,"ha":633,"o":"m 63 336 q 90 486 63 420 q 161 598 116 552 q 264 668 205 644 q 388 691 323 691 q 503 667 455 691 q 586 611 551 643 l 529 537 q 466 580 498 563 q 393 597 433 597 q 308 578 347 597 q 241 525 269 559 q 197 442 213 490 q 181 336 181 394 q 197 230 181 277 q 239 149 212 183 q 305 96 266 115 q 390 77 344 77 q 478 97 438 77 q 548 145 518 118 l 600 70 q 497 6 554 30 q 380 -16 441 -16 q 255 6 313 -16 q 154 75 197 30 q 88 186 112 120 q 63 336 63 252 "},"&":{"x_min":44.453125,"x_max":825.0625,"ha":846,"o":"m 155 243 q 169 174 155 205 q 207 120 183 143 q 264 86 231 98 q 334 75 297 75 q 425 94 381 75 q 508 148 468 113 q 379 276 441 206 q 269 419 318 345 q 188 338 220 380 q 155 243 155 295 m 262 713 q 274 636 262 676 q 305 554 286 595 q 364 596 336 575 q 414 641 393 618 q 448 689 436 663 q 461 745 461 715 q 441 816 461 786 q 375 845 420 845 q 293 808 323 845 q 262 713 262 770 m 794 -16 q 693 22 745 -2 q 584 87 640 48 q 467 11 531 40 q 322 -16 402 -16 q 209 2 259 -16 q 121 54 158 20 q 64 134 84 87 q 44 236 44 180 q 59 319 44 281 q 98 388 73 356 q 156 447 123 420 q 223 498 188 475 q 179 609 195 555 q 163 712 163 662 q 179 797 163 758 q 222 865 194 836 q 288 911 250 894 q 375 927 327 927 q 506 877 459 927 q 554 747 554 827 q 536 665 554 702 q 488 595 518 627 q 422 534 459 562 q 348 477 386 505 q 453 341 393 406 q 579 222 513 276 q 653 345 620 279 q 707 491 686 412 l 813 491 q 747 319 786 401 q 654 165 708 237 q 744 111 701 133 q 825 77 787 88 l 794 -16 "},"I":{"x_min":120.84375,"x_max":237.515625,"ha":358,"o":"m 120 911 l 237 911 l 237 0 l 120 0 l 120 911 "},"G":{"x_min":68.0625,"x_max":761.171875,"ha":850,"o":"m 68 455 q 99 652 68 565 q 186 801 130 740 q 320 895 243 862 q 488 927 397 927 q 645 892 581 927 q 750 815 709 857 l 683 741 q 603 802 648 777 q 490 826 558 826 q 365 800 420 826 q 270 727 309 775 q 209 611 230 679 q 187 458 187 543 q 207 303 187 372 q 265 186 227 234 q 360 111 304 137 q 490 84 416 84 q 583 99 538 84 q 655 138 627 113 l 655 376 l 462 376 l 462 472 l 761 472 l 761 88 q 643 13 716 44 q 477 -16 569 -16 q 312 15 387 -16 q 183 107 237 47 q 98 256 129 168 q 68 455 68 344 "},"`":{"x_min":221.828125,"x_max":466.28125,"ha":753,"o":"m 221 991 l 341 991 l 466 795 l 378 795 l 221 991 "},"(":{"x_min":113.890625,"x_max":368.078125,"ha":421,"o":"m 297 -244 q 162 48 211 -105 q 113 386 113 202 q 162 722 113 569 q 297 1016 211 876 l 368 983 q 247 697 287 850 q 208 386 208 545 q 247 74 208 226 q 368 -211 287 -77 l 297 -244 l 297 -244 "},"U":{"x_min":116.671875,"x_max":772.28125,"ha":889,"o":"m 116 911 l 233 911 l 233 373 q 250 236 233 291 q 295 147 266 180 q 361 99 323 113 q 444 84 400 84 q 529 99 490 84 q 598 147 569 113 q 644 236 627 180 q 661 373 661 291 l 661 911 l 772 911 l 772 376 q 747 191 772 266 q 678 70 722 116 q 574 3 634 23 q 444 -16 513 -16 q 314 3 375 -16 q 210 70 254 23 q 141 191 166 116 q 116 376 116 266 l 116 911 "},"F":{"x_min":120.84375,"x_max":647.28125,"ha":679,"o":"m 120 911 l 647 911 l 647 813 l 237 813 l 237 505 l 584 505 l 584 408 l 237 408 l 237 0 l 120 0 l 120 911 "},"r":{"x_min":113.890625,"x_max":486.15625,"ha":482,"o":"m 113 675 l 208 675 l 218 552 l 222 552 q 306 654 256 616 q 413 691 355 691 q 486 677 454 691 l 463 577 q 433 586 447 583 q 398 588 419 588 q 309 554 355 588 q 227 433 262 519 l 227 0 l 113 0 l 113 675 "},":":{"x_min":90.28125,"x_max":255.578125,"ha":346,"o":"m 90 570 q 114 635 90 610 q 173 659 138 659 q 231 635 206 659 q 255 570 255 610 q 231 508 255 532 q 173 484 206 484 q 114 508 138 484 q 90 570 90 532 m 90 69 q 114 134 90 109 q 173 158 138 158 q 231 134 206 158 q 255 69 255 109 q 231 7 255 31 q 173 -16 206 -16 q 114 7 138 -16 q 90 69 90 31 "},"x":{"x_min":19.453125,"x_max":600.046875,"ha":620,"o":"m 240 352 l 36 675 l 159 675 l 250 526 q 281 470 265 498 q 316 413 298 441 l 322 413 q 352 470 337 441 q 383 526 368 498 l 465 675 l 584 675 l 380 340 l 600 0 l 476 0 l 377 156 q 341 218 359 187 q 304 277 323 248 l 298 277 q 263 218 280 248 q 230 156 247 188 l 138 0 l 19 0 l 240 352 "},"*":{"x_min":80.5625,"x_max":500.046875,"ha":581,"o":"m 136 623 l 215 754 l 80 809 l 101 873 l 243 838 l 255 988 l 323 988 l 336 840 l 479 873 l 500 809 l 365 754 l 443 623 l 388 583 l 290 702 l 191 583 l 136 623 "},"V":{"x_min":-2.78125,"x_max":711.171875,"ha":708,"o":"m -2 911 l 119 911 l 266 419 q 309 268 290 337 q 354 118 329 198 l 359 118 q 383 195 372 158 q 404 268 394 231 q 425 341 415 304 q 447 419 436 379 l 593 911 l 711 911 l 422 0 l 287 0 l -2 911 "},"h":{"x_min":113.890625,"x_max":654.21875,"ha":756,"o":"m 113 988 l 227 988 l 227 719 l 223 580 q 325 659 272 626 q 448 691 377 691 q 604 625 555 691 q 654 427 654 558 l 654 0 l 540 0 l 540 412 q 509 550 540 508 q 412 593 479 593 q 319 566 359 593 q 227 488 279 540 l 227 0 l 113 0 l 113 988 "},"0":{"x_min":61.109375,"x_max":629.21875,"ha":690,"o":"m 345 -16 q 136 102 211 -16 q 61 445 61 222 q 136 786 61 669 q 345 902 211 902 q 554 786 479 902 q 629 445 629 669 q 554 102 629 222 q 345 -16 479 -16 m 345 75 q 416 96 384 75 q 470 163 447 118 q 505 278 493 208 q 518 445 518 348 q 505 612 518 543 q 470 725 493 682 q 416 790 447 769 q 345 811 384 811 q 275 790 306 811 q 220 725 243 769 q 184 612 197 682 q 172 445 172 543 q 220 163 172 251 q 345 75 268 75 "},".":{"x_min":90.28125,"x_max":255.578125,"ha":346,"o":"m 90 69 q 114 134 90 109 q 173 158 138 158 q 231 134 206 158 q 255 69 255 109 q 231 7 255 31 q 173 -16 206 -16 q 114 7 138 -16 q 90 69 90 31 "},"@":{"x_min":70.84375,"x_max":1105.640625,"ha":1176,"o":"m 70 281 q 117 534 70 420 q 243 729 163 648 q 428 853 323 809 q 650 897 533 897 q 839 863 755 897 q 982 770 923 830 q 1073 625 1041 709 q 1105 437 1105 540 q 1079 277 1105 345 q 1013 161 1054 208 q 924 91 973 115 q 827 68 875 68 q 731 94 770 68 q 684 173 691 120 l 682 173 q 602 106 647 133 q 512 79 558 79 q 393 129 441 79 q 345 275 345 179 q 364 388 345 330 q 418 492 383 445 q 502 568 452 538 q 612 597 551 597 q 676 581 648 597 q 723 530 704 565 l 726 530 l 741 586 l 818 586 l 763 308 q 838 145 722 145 q 904 165 872 145 q 964 221 937 184 q 1008 311 991 258 q 1025 433 1025 365 q 1000 588 1025 516 q 927 711 976 659 q 807 791 879 762 q 640 820 734 820 q 459 782 547 820 q 304 675 372 744 q 195 506 236 605 q 154 286 154 408 q 185 105 154 184 q 272 -27 216 26 q 403 -110 327 -81 q 568 -138 479 -138 q 688 -121 632 -138 q 793 -76 745 -104 l 823 -144 q 559 -215 705 -215 q 368 -183 456 -215 q 213 -88 279 -151 q 109 68 147 -25 q 70 281 70 161 m 437 281 q 465 186 437 215 q 534 156 493 156 q 595 176 563 156 q 662 238 626 195 l 702 459 q 662 504 683 491 q 613 518 641 518 q 539 495 572 518 q 484 438 506 473 q 449 362 461 404 q 437 281 437 320 "},"f":{"x_min":41.671875,"x_max":443.09375,"ha":406,"o":"m 418 895 q 341 912 380 912 q 247 782 247 912 l 247 675 l 390 675 l 390 581 l 247 581 l 247 0 l 133 0 l 133 581 l 41 581 l 41 668 l 133 675 l 133 782 q 181 945 133 886 q 330 1005 229 1005 q 391 999 362 1005 q 443 983 419 993 l 418 895 "},";":{"x_min":65.28125,"x_max":275.015625,"ha":346,"o":"m 90 570 q 114 635 90 610 q 173 659 138 659 q 231 635 206 659 q 255 570 255 610 q 231 508 255 532 q 173 484 206 484 q 114 508 138 484 q 90 570 90 532 m 65 -169 q 156 -100 123 -143 q 190 0 190 -56 q 176 -1 186 -1 q 118 18 143 -1 q 94 77 94 38 q 119 136 94 115 q 179 158 144 158 q 249 122 223 158 q 275 23 275 86 q 226 -133 275 -66 q 93 -236 177 -200 l 65 -169 "},"i":{"x_min":93.0625,"x_max":251.40625,"ha":342,"o":"m 172 813 q 115 834 138 813 q 93 887 93 855 q 115 941 93 920 q 172 961 138 961 q 228 941 205 961 q 251 887 251 920 q 228 834 251 855 q 172 813 205 813 m 113 675 l 227 675 l 227 0 l 113 0 l 113 675 "},"6":{"x_min":66.671875,"x_max":634.765625,"ha":690,"o":"m 372 73 q 433 87 405 73 q 481 127 461 101 q 514 188 502 152 q 526 268 526 223 q 486 405 526 355 q 362 455 445 455 q 271 428 320 455 q 177 338 222 401 q 238 140 188 208 q 372 73 287 73 m 554 737 q 488 788 526 769 q 408 807 450 807 q 320 787 362 807 q 247 723 279 768 q 195 607 215 679 q 175 430 176 536 q 272 511 216 481 q 381 541 327 541 q 566 473 497 541 q 634 268 634 405 q 613 152 634 204 q 556 62 593 100 q 473 4 520 25 q 372 -16 426 -16 q 251 9 306 -16 q 154 89 195 36 q 90 222 113 143 q 66 409 66 302 q 94 636 66 543 q 169 789 122 730 q 277 875 216 848 q 404 902 337 902 q 528 875 476 902 q 618 808 580 848 l 554 737 "},"A":{"x_min":0,"x_max":747.28125,"ha":747,"o":"m 508 370 l 465 509 q 419 661 441 586 q 375 816 397 737 l 369 816 q 325 661 347 737 q 279 509 302 586 l 234 370 l 508 370 m 537 277 l 205 277 l 118 0 l 0 0 l 308 911 l 438 911 l 747 0 l 625 0 l 537 277 "},"π":{"x_min":33.34375,"x_max":736.171875,"ha":779,"o":"m 152 580 l 33 580 l 33 668 l 129 675 l 736 675 l 736 580 l 633 580 l 633 148 q 645 96 633 115 q 680 77 657 77 q 695 79 687 77 q 713 84 702 81 l 729 -2 q 652 -16 697 -16 q 547 29 577 -16 q 518 156 518 76 l 518 580 l 265 580 l 265 0 l 152 0 l 152 580 "},"n":{"x_min":113.890625,"x_max":654.21875,"ha":760,"o":"m 113 675 l 208 675 l 218 577 l 222 577 q 324 659 270 626 q 448 691 377 691 q 604 625 555 691 q 654 427 654 558 l 654 0 l 540 0 l 540 412 q 509 550 540 508 q 412 593 479 593 q 319 566 359 593 q 227 488 279 540 l 227 0 l 113 0 l 113 675 "},"O":{"x_min":68.0625,"x_max":847.296875,"ha":915,"o":"m 458 -16 q 300 16 372 -16 q 177 111 229 50 q 96 261 125 173 q 68 459 68 350 q 96 656 68 569 q 177 803 125 743 q 300 895 229 863 q 458 927 372 927 q 614 895 543 927 q 738 802 686 862 q 818 654 790 741 q 847 459 847 568 q 818 261 847 350 q 738 111 790 173 q 614 16 686 50 q 458 -16 543 -16 m 458 84 q 568 111 519 84 q 653 186 618 137 q 708 304 688 236 q 727 459 727 373 q 708 612 727 544 q 653 727 688 680 q 568 800 618 775 q 458 826 519 826 q 347 800 397 826 q 261 727 297 775 q 206 612 226 680 q 187 459 187 544 q 206 304 187 373 q 261 186 226 236 q 347 111 297 137 q 458 84 397 84 "},"3":{"x_min":36.109375,"x_max":619.5,"ha":690,"o":"m 94 183 q 188 109 134 141 q 320 77 241 77 q 452 121 401 77 q 504 240 504 165 q 489 311 504 279 q 441 368 475 344 q 354 404 408 391 q 220 416 300 416 l 220 504 q 339 516 291 504 q 417 551 387 529 q 459 604 447 573 q 472 669 472 634 q 431 772 472 734 q 319 809 390 809 q 217 784 263 809 q 130 719 170 759 l 69 791 q 182 871 120 840 q 323 902 244 902 q 430 887 381 902 q 514 843 479 872 q 569 773 550 815 q 588 677 588 732 q 544 545 588 597 q 427 466 500 494 l 427 461 q 502 432 468 451 q 563 385 537 413 q 604 319 590 356 q 619 236 619 281 q 596 130 619 177 q 534 50 573 83 q 441 0 494 18 q 327 -16 388 -16 q 231 -6 275 -16 q 151 21 187 4 q 86 61 115 38 q 36 108 58 83 l 94 183 "},"]":{"x_min":43.0625,"x_max":290.296875,"ha":421,"o":"m 204 -145 l 204 916 l 43 916 l 43 983 l 290 983 l 290 -211 l 43 -211 l 43 -145 l 204 -145 "},"m":{"x_min":113.890625,"x_max":1045.921875,"ha":1151,"o":"m 113 675 l 208 675 l 218 577 l 222 577 q 318 659 266 626 q 431 691 370 691 q 553 657 509 691 q 618 562 597 623 q 724 656 670 620 q 840 691 777 691 q 995 625 944 691 q 1045 427 1045 558 l 1045 0 l 932 0 l 932 412 q 901 550 932 508 q 807 593 870 593 q 637 488 730 593 l 637 0 l 523 0 l 523 412 q 493 550 523 508 q 397 593 462 593 q 227 488 320 593 l 227 0 l 113 0 l 113 675 "},"9":{"x_min":55.5625,"x_max":622.265625,"ha":690,"o":"m 326 430 q 418 457 369 430 q 512 548 468 484 q 451 745 501 679 q 316 812 401 812 q 256 798 284 812 q 206 759 227 784 q 174 697 186 733 q 162 618 162 661 q 202 480 162 530 q 326 430 243 430 m 134 148 q 200 97 162 116 q 280 77 238 77 q 369 97 327 77 q 443 161 411 116 q 494 279 475 206 q 515 458 513 351 q 418 375 473 405 q 306 344 362 344 q 123 412 191 344 q 55 618 55 480 q 76 734 55 682 q 132 823 97 786 q 215 882 168 861 q 316 902 263 902 q 438 876 381 902 q 535 796 494 850 q 599 663 576 743 q 622 476 622 583 q 594 249 622 343 q 519 96 566 155 q 411 10 472 37 q 284 -16 351 -16 q 160 9 213 -16 q 70 76 106 36 l 134 148 "},"l":{"x_min":113.890625,"x_max":300.03125,"ha":354,"o":"m 113 988 l 227 988 l 227 127 q 237 88 227 100 q 259 77 247 77 q 270 77 265 77 q 284 80 275 77 l 300 -5 q 273 -13 288 -11 q 234 -16 258 -16 q 141 22 169 -16 q 113 136 113 61 l 113 988 "},"8":{"x_min":56.953125,"x_max":633.390625,"ha":690,"o":"m 159 237 q 174 169 159 200 q 214 115 188 138 q 275 80 240 93 q 350 68 309 68 q 475 111 427 68 q 523 223 523 154 q 504 297 523 266 q 451 350 484 327 q 374 392 418 373 q 283 430 330 411 q 195 346 230 394 q 159 237 159 298 m 409 483 q 478 568 454 523 q 502 661 502 612 q 462 772 502 727 q 348 818 422 818 q 245 779 286 818 q 205 675 205 740 q 222 606 205 634 q 267 555 238 577 q 332 516 295 533 q 409 483 369 498 m 56 226 q 71 306 56 269 q 109 372 86 343 q 161 425 131 402 q 223 465 191 448 l 223 470 q 137 554 175 505 q 100 675 100 604 q 119 768 100 726 q 172 839 138 809 q 251 886 205 869 q 351 902 297 902 q 455 885 409 902 q 534 836 501 868 q 584 761 566 805 q 601 666 601 718 q 589 600 601 632 q 560 540 577 568 q 521 490 543 512 q 479 452 500 468 l 479 447 q 536 409 508 430 q 585 360 563 387 q 620 298 607 333 q 633 219 633 263 q 612 126 633 169 q 554 51 591 83 q 463 1 516 19 q 347 -16 411 -16 q 231 1 284 -16 q 139 52 177 19 q 79 129 101 84 q 56 226 56 173 "},"p":{"x_min":113.890625,"x_max":704.21875,"ha":771,"o":"m 227 -56 l 227 -284 l 113 -284 l 113 675 l 208 675 l 218 597 l 222 597 q 322 663 268 636 q 437 691 377 691 q 552 667 502 691 q 636 597 602 643 q 686 489 669 552 q 704 347 704 426 q 680 193 704 261 q 616 79 657 126 q 523 7 576 31 q 412 -16 470 -16 q 318 4 365 -16 q 225 61 272 25 l 227 -56 m 227 150 q 316 95 273 111 q 393 79 359 79 q 470 97 434 79 q 531 150 505 116 q 571 234 556 184 q 586 347 586 284 q 576 448 586 402 q 545 527 566 494 q 489 577 523 559 q 408 595 455 595 q 321 572 365 595 q 227 504 277 548 l 227 150 "},"4":{"x_min":23.609375,"x_max":651.4375,"ha":690,"o":"m 422 336 l 422 593 q 424 678 422 629 q 429 763 426 727 l 423 763 q 388 701 406 732 q 351 638 370 670 l 144 336 l 422 336 m 651 244 l 530 244 l 530 0 l 422 0 l 422 244 l 23 244 l 23 319 l 402 886 l 530 886 l 530 336 l 651 336 l 651 244 "},"R":{"x_min":120.84375,"x_max":752.84375,"ha":800,"o":"m 237 479 l 390 479 q 553 522 497 479 q 609 655 609 566 q 553 782 609 745 q 390 818 497 818 l 237 818 l 237 479 m 620 0 l 401 384 l 237 384 l 237 0 l 120 0 l 120 911 l 406 911 q 534 897 476 911 q 635 854 593 884 q 701 775 677 823 q 725 655 725 726 q 669 484 725 548 q 520 397 613 420 l 752 0 l 620 0 "},"\r":{"x_min":0,"x_max":0,"ha":281},"o":{"x_min":63.890625,"x_max":688.9375,"ha":753,"o":"m 63 336 q 89 486 63 420 q 158 598 115 552 q 257 668 201 644 q 376 691 313 691 q 495 668 438 691 q 594 598 551 644 q 663 486 637 552 q 688 336 688 420 q 663 186 688 252 q 594 75 637 120 q 495 6 551 30 q 376 -16 438 -16 q 257 6 313 -16 q 158 75 201 30 q 89 186 115 120 q 63 336 63 252 m 181 336 q 195 230 181 277 q 235 149 209 183 q 297 96 261 115 q 376 77 333 77 q 455 96 419 77 q 517 149 491 115 q 556 230 543 183 q 570 336 570 277 q 556 442 570 394 q 517 525 543 490 q 455 578 491 559 q 376 597 419 597 q 297 578 333 597 q 235 525 261 559 q 195 442 209 490 q 181 336 181 394 "},"5":{"x_min":34.71875,"x_max":623.65625,"ha":690,"o":"m 90 179 q 182 108 129 138 q 313 77 236 77 q 389 92 354 77 q 451 133 425 106 q 493 197 477 159 q 508 280 508 234 q 456 423 508 372 q 319 475 405 475 q 240 461 273 475 q 168 420 208 447 l 106 459 l 136 886 l 579 886 l 579 787 l 236 787 l 212 525 q 276 551 244 541 q 348 561 308 561 q 455 544 405 561 q 543 493 505 527 q 602 407 580 459 q 623 283 623 355 q 598 155 623 211 q 531 61 573 100 q 436 3 490 23 q 325 -16 383 -16 q 228 -6 272 -16 q 149 20 184 4 q 85 59 113 37 q 34 104 56 80 l 90 179 "}}}
